<svg width="132" height="127" viewBox="0 0 132 127" fill="none" xmlns="http://www.w3.org/2000/svg">
<path d="M19.5983 54.8081C17.8883 49.986 17.0883 45.1311 17.4983 40.0903C18.6883 25.46 26.1983 15.4002 37.2583 8.12882C55.5083 -3.8663 80.2983 -2.45575 97.2583 11.4966C104.948 17.8277 110.288 25.9629 112.028 36.5256C113.288 44.1798 112.048 51.4294 108.818 58.5258C104.998 56.2077 101.318 53.988 97.6383 51.7574C89.9683 47.0993 82.3383 42.3647 74.6383 37.7831C67.8883 33.7702 60.9783 33.6171 54.0083 37.2145C43.0083 42.9004 31.9983 48.5536 20.9883 54.2176C20.5783 54.4254 20.1483 54.5675 19.5983 54.7972V54.8081Z" fill="#F9B233"/>
<path d="M100.208 107.884C95.8981 110.552 91.8481 113.067 87.7981 115.582C83.6281 118.163 79.4381 120.688 75.3081 123.346C69.1981 127.282 63.3381 127.063 57.4581 122.668C50.0381 117.113 42.4981 111.744 35.0081 106.288C34.5381 105.949 34.1081 105.555 33.4481 105.03C36.4081 103.062 39.1881 101.214 41.9781 99.3662C49.2281 94.566 56.5081 89.7986 63.7281 84.9327C64.9281 84.1236 65.7481 84.1236 66.9581 84.9655C77.4881 92.2588 88.0581 99.4756 98.6281 106.703C99.0581 106.999 99.4781 107.337 100.198 107.884H100.208ZM72.9481 79.8373C84.0481 87.4586 95.1481 95.0581 106.238 102.701C107.078 103.281 107.728 103.281 108.588 102.745C115.248 98.568 121.948 94.4895 128.608 90.3125C132.628 87.7866 132.648 82.046 128.568 79.5311C119.118 73.6921 109.618 67.9734 100.098 62.2656C99.5781 61.9485 98.6181 62.0141 98.0781 62.3312C95.9981 63.5558 94.0081 64.9554 91.9781 66.3004C85.5181 70.5758 79.0481 74.8512 72.4281 79.2359C72.7181 79.5858 72.798 79.7607 72.938 79.8591L72.9481 79.8373ZM29.6381 59.4335C29.1881 59.1274 28.2981 59.193 27.7681 59.4554C19.7681 63.5121 11.8081 67.6563 3.80806 71.7239C1.55806 72.8611 0.138058 74.6106 0.00805795 77.3333C-0.111942 79.9029 1.11807 81.7071 3.04807 83.1067C10.5181 88.4974 17.9781 93.899 25.3981 99.3772C26.4281 100.143 27.1581 100.088 28.1581 99.41C34.6981 95.0253 41.2681 90.6952 47.8281 86.3542C51.3181 84.0361 54.8081 81.7289 58.5481 79.2468C48.6981 72.4784 39.1781 65.9286 29.6281 59.4445L29.6381 59.4335ZM37.6681 55.6611C46.5681 61.7735 55.4781 67.864 64.3681 73.9983C65.2781 74.6215 65.898 74.4028 66.718 73.8561C74.6581 68.5748 82.6181 63.3262 90.5781 58.0667C90.9381 57.8262 91.248 57.4872 91.718 57.0608C84.308 52.5995 77.1281 48.1382 69.8181 43.9503C66.1681 41.8618 62.1681 41.8072 58.3981 43.666C51.1981 47.2197 44.0881 50.9812 36.688 54.7754C37.148 55.18 37.3881 55.4534 37.6781 55.6502L37.6681 55.6611Z" fill="url(#paint0_linear_408_43)"/>
<defs>
<linearGradient id="paint0_linear_408_43" x1="65.8181" y1="42.332" x2="65.8181" y2="126.145" gradientUnits="userSpaceOnUse">
<stop stop-color="#4381C1"/>
<stop offset="1" stop-color="#312783"/>
</linearGradient>
</defs>
</svg>
