<svg width="58" height="36" viewBox="0 0 58 36" fill="none" xmlns="http://www.w3.org/2000/svg">
<path fill-rule="evenodd" clip-rule="evenodd" d="M28.6631 21.7787C25.7908 21.7787 18.7367 21.7877 18.7367 21.7877V14.8622H36.3703C37.5984 23.242 33.8937 35.8118 18.7367 35.8118C8.5963 35.8118 0.375977 27.9825 0.375977 18.325C0.375977 8.66721 8.5963 0.838135 18.7367 0.838135C23.4948 0.838135 27.8302 2.56188 31.092 5.38956C28.5644 7.66296 27.754 8.52959 27.0655 9.26594C26.7074 9.64897 26.3822 9.99675 25.8654 10.489C23.9786 9.00292 21.9216 7.93674 18.7367 7.93674C12.7127 7.93674 8.01113 12.5877 8.01113 18.325C8.01113 24.0622 12.7127 28.7132 18.7367 28.7132C24.6892 28.7132 27.1077 26.2683 28.6631 21.7787ZM51.1508 8.60986V14.7491H57.2805V19.1343H51.1508V25.449H46.7725V19.1343H40.4676V14.7491H46.7725V8.60986H51.1508Z" fill="white"/>
</svg>
