<svg width="53" height="52" viewBox="0 0 53 52" fill="none" xmlns="http://www.w3.org/2000/svg">
<path fill-rule="evenodd" clip-rule="evenodd" d="M42.3169 33.0634L36.7912 32.4351C35.4642 32.2834 34.1589 32.7384 33.2235 33.6701L29.2206 37.6567C23.064 34.5367 18.017 29.5317 14.8843 23.3784L18.9089 19.3701C19.8444 18.4384 20.3012 17.1384 20.1489 15.8167L19.518 10.3567C19.257 8.1684 17.4078 6.52173 15.1889 6.52173H11.4253C8.96705 6.52173 6.92212 8.5584 7.0744 11.0067C8.22739 29.5101 23.0858 44.2867 41.6425 45.4351C44.1008 45.5867 46.1457 43.5501 46.1457 41.1017V37.3534C46.1675 35.1651 44.5141 33.3234 42.3169 33.0634Z" fill="white"/>
</svg>
