<svg width="132" height="116" viewBox="0 0 132 116" fill="none" xmlns="http://www.w3.org/2000/svg">
<path d="M19.5981 50.7213C17.8881 46.324 17.0881 41.8968 17.4981 37.3C18.6881 23.9584 26.1981 14.7849 37.2581 8.15397C55.5081 -2.78451 80.2981 -1.49822 97.2581 11.2251C104.948 16.9985 110.288 24.4171 112.028 34.0494C113.288 41.0293 112.048 47.6402 108.818 54.1116C104.998 51.9977 101.318 49.9735 97.6381 47.9394C89.9681 43.6916 82.3381 39.374 74.6381 35.1961C67.8881 31.5366 60.9781 31.397 54.0081 34.6776C43.0081 39.8626 31.9981 45.0178 20.9881 50.1829C20.5781 50.3724 20.1481 50.502 19.5981 50.7114V50.7213Z" fill="#F9B233"/>
<path d="M100.208 99.1219C95.8981 101.555 91.8481 103.848 87.7981 106.142C83.6281 108.495 79.4381 110.798 75.3081 113.221C69.1981 116.811 63.3381 116.612 57.4581 112.603C50.0381 107.538 42.4981 102.642 35.0081 97.6661C34.5381 97.357 34.1081 96.998 33.4481 96.5194C36.4081 94.7246 39.1881 93.0394 41.9781 91.3543C49.2281 86.9769 56.5081 82.6294 63.7281 78.1922C64.9281 77.4543 65.7481 77.4543 66.9581 78.2221C77.4881 84.873 88.0581 91.454 98.6281 98.045C99.0581 98.3142 99.4781 98.6233 100.198 99.1219H100.208ZM72.9481 73.5456C84.0481 80.4956 95.1481 87.4256 106.238 94.3955C107.078 94.924 107.728 94.924 108.588 94.4354C115.248 90.6264 121.948 86.9071 128.608 83.0981C132.628 80.7947 132.648 75.5598 128.568 73.2664C119.118 67.9417 109.618 62.7267 100.098 57.5217C99.5781 57.2326 98.6181 57.2924 98.0781 57.5816C95.9981 58.6983 94.0081 59.9747 91.9781 61.2011C85.5181 65.0999 79.0481 68.9987 72.4281 72.9972C72.7181 73.3163 72.798 73.4758 72.938 73.5655L72.9481 73.5456ZM29.6381 54.9392C29.1881 54.66 28.2981 54.7198 27.7681 54.9591C19.7681 58.6585 11.8081 62.4376 3.80806 66.1469C1.55806 67.1839 0.138058 68.7793 0.00805795 71.2622C-0.111942 73.6054 1.11807 75.2507 3.04807 76.527C10.5181 81.4428 17.9781 86.3686 25.3981 91.3642C26.4281 92.0622 27.1581 92.0124 28.1581 91.3942C34.6981 87.3957 41.2681 83.4471 47.8281 79.4885C51.3181 77.3745 54.8081 75.2706 58.5481 73.0071C48.6981 66.8349 39.1781 60.8621 29.6281 54.9492L29.6381 54.9392ZM37.6681 51.4991C46.5681 57.073 55.4781 62.627 64.3681 68.2209C65.2781 68.7893 65.898 68.5899 66.718 68.0913C74.6581 63.2752 82.6181 58.489 90.5781 53.6928C90.9381 53.4734 91.248 53.1643 91.718 52.7754C84.308 48.7072 77.1281 44.6389 69.8181 40.8199C66.1681 38.9153 62.1681 38.8655 58.3981 40.5606C51.1981 43.8013 44.0881 47.2314 36.688 50.6914C37.148 51.0603 37.3881 51.3096 37.6781 51.4891L37.6681 51.4991Z" fill="url(#paint0_linear_425_13)"/>
<defs>
<linearGradient id="paint0_linear_425_13" x1="65.8181" y1="39.3441" x2="65.8181" y2="115.774" gradientUnits="userSpaceOnUse">
<stop stop-color="#4381C1"/>
<stop offset="1" stop-color="#312783"/>
</linearGradient>
</defs>
</svg>
