<svg width="48" height="34" viewBox="0 0 48 34" fill="none" xmlns="http://www.w3.org/2000/svg">
<path d="M5.28902 0C2.8602 0 0.889648 1.88965 0.889648 4.21875C0.889648 5.5459 1.54039 6.79394 2.6494 7.59375L22.5932 21.9375C23.6381 22.6846 25.0679 22.6846 26.1127 21.9375L46.0566 7.59375C47.1656 6.79394 47.8163 5.5459 47.8163 4.21875C47.8163 1.88965 45.8458 0 43.417 0H5.28902ZM0.889648 9.84375V28.125C0.889648 31.2275 3.52011 33.75 6.75548 33.75H41.9505C45.1859 33.75 47.8163 31.2275 47.8163 28.125V9.84375L27.8725 24.1875C25.7828 25.6904 22.9232 25.6904 20.8335 24.1875L0.889648 9.84375Z" fill="white"/>
</svg>
