<svg width="52" height="52" viewBox="0 0 52 52" fill="none" xmlns="http://www.w3.org/2000/svg">
<path fill-rule="evenodd" clip-rule="evenodd" d="M25.8139 0.477783C18.9173 0.477783 18.0525 0.507062 15.344 0.630838C12.6411 0.754309 10.7951 1.18429 9.17988 1.81307C7.51 2.46294 6.09384 3.3326 4.68201 4.74653C3.27029 6.16056 2.40198 7.57894 1.75312 9.25142C1.12533 10.8692 0.696017 12.7181 0.572737 15.4252C0.449155 18.1379 0.419922 19.0041 0.419922 25.9115C0.419922 32.8188 0.449155 33.6849 0.572737 36.3977C0.696017 39.1048 1.12533 40.9537 1.75312 42.5714C2.40198 44.2439 3.27029 45.6623 4.68201 47.0763C6.09384 48.4903 7.51 49.3599 9.17988 50.0099C10.7951 50.6386 12.6411 51.0685 15.344 51.192C18.0525 51.3158 18.9173 51.3451 25.8139 51.3451C32.7105 51.3451 33.5752 51.3158 36.2838 51.192C38.9867 51.0685 40.8327 50.6386 42.4479 50.0099C44.1178 49.3599 45.5339 48.4903 46.9458 47.0763C48.3575 45.6623 49.2258 44.2439 49.8748 42.5714C50.5024 40.9537 50.9318 39.1048 51.055 36.3977C51.1786 33.6849 51.2079 32.8188 51.2079 25.9115C51.2079 19.0041 51.1786 18.1379 51.055 15.4252C50.9318 12.7181 50.5024 10.8692 49.8748 9.25142C49.2258 7.57894 48.3575 6.16056 46.9458 4.74653C45.5339 3.3326 44.1178 2.46294 42.4479 1.81307C40.8327 1.18429 38.9867 0.754309 36.2838 0.630838C33.5752 0.507062 32.7105 0.477783 25.8139 0.477783ZM25.8133 5.0603C32.5938 5.0603 33.3969 5.08625 36.0746 5.20861C38.5505 5.32169 39.8951 5.73602 40.7899 6.08433C41.9752 6.54571 42.8212 7.09685 43.7097 7.9869C44.5984 8.87685 45.1487 9.7241 45.6093 10.9113C45.9571 11.8075 46.3708 13.1542 46.4837 15.6339C46.6059 18.3158 46.6318 19.1203 46.6318 25.9114C46.6318 32.7024 46.6059 33.5068 46.4837 36.1887C46.3708 38.6684 45.9571 40.0151 45.6093 40.9114C45.1487 42.0985 44.5984 42.9458 43.7097 43.8357C42.8212 44.7258 41.9752 45.2769 40.7899 45.7383C39.8951 46.0866 38.5505 46.5009 36.0746 46.614C33.3973 46.7364 32.5943 46.7623 25.8133 46.7623C19.0323 46.7623 18.2293 46.7364 15.5519 46.614C13.0761 46.5009 11.7315 46.0866 10.8367 45.7383C9.65133 45.2769 8.8054 44.7258 7.91684 43.8357C7.02827 42.9458 6.4779 42.0985 6.01723 40.9114C5.66947 40.0151 5.25578 38.6684 5.14288 36.1887C5.02071 33.5068 4.9948 32.7024 4.9948 25.9114C4.9948 19.1203 5.02071 18.3158 5.14288 15.6339C5.25578 13.1542 5.66947 11.8075 6.01723 10.9113C6.4779 9.7241 7.02817 8.87685 7.91684 7.9869C8.8054 7.09685 9.65133 6.54571 10.8367 6.08433C11.7315 5.73602 13.0761 5.32169 15.5519 5.20861C18.2296 5.08625 19.0328 5.0603 25.8133 5.0603ZM12.7727 25.9119C12.7727 18.6987 18.6109 12.8513 25.8129 12.8513C33.0147 12.8513 38.853 18.6987 38.853 25.9119C38.853 33.125 33.0147 38.9723 25.8129 38.9723C18.6109 38.9723 12.7727 33.125 12.7727 25.9119ZM25.8133 34.3894C21.1383 34.3894 17.3485 30.5937 17.3485 25.9115C17.3485 21.2292 21.1383 17.4336 25.8133 17.4336C30.4881 17.4336 34.2779 21.2292 34.2779 25.9115C34.2779 30.5937 30.4881 34.3894 25.8133 34.3894ZM39.3691 15.3868C41.052 15.3868 42.4164 14.0204 42.4164 12.3348C42.4164 10.6492 41.052 9.28271 39.3691 9.28271C37.6862 9.28271 36.3218 10.6492 36.3218 12.3348C36.3218 14.0204 37.6862 15.3868 39.3691 15.3868Z" fill="white"/>
</svg>
