<svg width="52" height="46" viewBox="0 0 52 46" fill="none" xmlns="http://www.w3.org/2000/svg">
<path fill-rule="evenodd" clip-rule="evenodd" d="M6.53095 10.9614H6.45928C2.87594 10.9614 0.552734 8.61337 0.552734 5.63704C0.552734 2.6028 2.94462 0.303955 6.59963 0.303955C10.2517 0.303955 12.4972 2.59701 12.5689 5.62835C12.5689 8.60468 10.2517 10.9614 6.53095 10.9614ZM51.3417 45.5197H40.1169V29.6247C40.1169 25.4642 38.361 22.624 34.5 22.624C31.5467 22.624 29.9043 24.5406 29.1399 26.3878C28.8875 26.9716 28.892 27.7574 28.8967 28.5673L28.8967 28.5679C28.8974 28.6777 28.898 28.7878 28.898 28.898V45.5197H17.7777C17.7777 45.5197 17.921 17.3633 17.7777 14.8039H28.898V19.6245C29.5549 17.5167 33.1084 14.5085 38.7791 14.5085C45.8144 14.5085 51.3417 18.9267 51.3417 28.4406V45.5197ZM11.7319 14.8035H1.83288V45.5193H11.7319V14.8035Z" fill="white"/>
</svg>
