<svg width="52" height="38" viewBox="0 0 52 38" fill="none" xmlns="http://www.w3.org/2000/svg">
<path fill-rule="evenodd" clip-rule="evenodd" d="M49.2456 3.69639C50.7677 5.28132 51.2644 8.88048 51.2644 8.88048C51.2644 8.88048 51.7723 13.1081 51.7723 17.334V21.2972C51.7723 25.5247 51.2644 29.7507 51.2644 29.7507C51.2644 29.7507 50.7677 33.3498 49.2456 34.9348C47.5055 36.8097 45.576 37.0034 44.4853 37.1129C44.3654 37.125 44.2556 37.136 44.1573 37.1481C37.0502 37.677 26.3783 37.6933 26.3783 37.6933C26.3783 37.6933 13.1735 37.5692 9.11044 37.1677C8.91794 37.1307 8.68458 37.1019 8.42031 37.0693C7.13331 36.9106 5.11329 36.6614 3.50949 34.9348C1.98744 33.3498 1.49225 29.7507 1.49225 29.7507C1.49225 29.7507 0.984375 25.5247 0.984375 21.2972V17.334C0.984375 13.1081 1.49225 8.88048 1.49225 8.88048C1.49225 8.88048 1.98744 5.28132 3.50949 3.69639C5.25352 1.81881 7.18486 1.62719 8.27558 1.51897C8.39383 1.50723 8.50221 1.49648 8.59939 1.48467C15.7065 0.955811 26.3672 0.955811 26.3672 0.955811H26.3895C26.3895 0.955811 37.0502 0.955811 44.1573 1.48467C44.2545 1.4965 44.3629 1.50727 44.4813 1.51902C45.5711 1.62725 47.5033 1.81912 49.2456 3.69639ZM21.1347 11.4233L21.1363 26.0991L34.857 18.7865L21.1347 11.4233Z" fill="white"/>
</svg>
